<svg xmlns="http://www.w3.org/2000/svg" xml:space="preserve" id="Layer_1" x="0" y="0" version="1.1" viewBox="0 0 172.20337 172.00024">
  <style id="style2" type="text/css">
    .st3{fill:#ffe600}
  </style>
  <path id="path4" fill="#009d3d" stroke-width="1.003" d="m3.4109668 52.85725 20.0363082 32.574 13.673832 22.235a24.598914 24.628 0 0 0-.21974 3.122c0 13.5 10.912097 24.452 24.366189 24.452.760101 0 1.500226-.05 2.24135-.11l21.515559 14.214 31.859325 21.05c1.46028.964 3.21121-.733 2.29129-2.229l-20.036304-32.573-13.653855-22.205c.08989-.853.139834-1.716.139834-2.6 0-13.5-10.913096-24.452-24.367187-24.452-.469445 0-.939889.04-1.400344.07l-22.296636-14.726-31.8593293-21.05c-1.4602733-.964-3.2102042.743-2.2902919 2.228zm45.6729952 57.93c0-6.755 5.451554-12.226 12.183594-12.226s12.183594 5.47 12.183594 12.227c0 6.755-5.451554 12.226-12.183594 12.226-6.73204-.01-12.183594-5.48-12.183594-12.226z"/>
  <path id="path6" fill="#004187" stroke-width="1.003" d="m10.773261 103.69025-7.8726907 6.937 7.8726907 6.946c.199764 1.486.469445 2.962.800054 4.407 4.6515 20.498 21.626429 36.328 42.662555 39.209l6.921816 7.9 6.911827-7.9c6.352489-.873 12.31344-2.941 17.695077-5.943l9.512752 6.284c-9.752468 6.605-21.494584 10.47-34.119656 10.47C27.437557 172.00025 0 144.46525 0 110.62725c0-13.38 4.3009145-25.768 11.573315-35.866l5.951963 9.686c-3.440932 5.782-5.80214 12.287-6.752017 19.244z"/>
  <path id="path8" fill="#e30613" stroke-width="1.003" d="M110.74206 121.98025c.32961-1.445.60029-2.921.80005-4.407l7.87269-6.946-7.87269-6.936c-3.08036-22.606-20.945234-40.534-43.462609-43.616l-6.911827-7.9-6.921815 7.9c-6.212654.853-12.04376 2.86-17.325514 5.752l-9.552705-6.314c9.693538-6.475 21.306806-10.26 33.800034-10.26 33.720129 0 61.157686 27.535 61.157686 61.374 0 13.24-4.22101 25.517-11.35358 35.555l-5.97094-9.707a50.849874 50.91 0 0 0 5.74122-14.495z"/>
  <path id="path12" stroke-width="1.003" d="M98.044071 19.29125c0-.01 0-.01 0 0l3.875419-9.098a2.7687262 2.772 0 0 1 3.67865-1.4860002c1.38037.59 2.03659 2.2160002 1.41932 3.6720002l-10.025146 23.555v.01l-3.865429 9.088c-.588305 1.385-2.20739 2.044-3.587758 1.444-1.451284-.619-2.09752-2.245-1.509215-3.63z" class="st3"/>
  <path id="path14" stroke-width="1.003" d="m77.102832 26.06025.992826-4.13c.403523-1.52 1.87778-2.38 3.383-2.077 1.465267.354 2.373194 1.884 2.020611 3.354l-2.991463 12.504c-.01.03-.01998.05-.03096.08l-.97185 4.05c-.352584 1.47-1.87778 2.381-3.343048 2.027-1.465267-.354-2.413146-1.834-2.068554-3.395z" class="st3"/>
  <path id="path16" stroke-width="1.003" d="M63.463959.00024985c1.499227.048 2.729772 1.33299995 2.630889 2.87699995L65.343736 28.46325c-.004.1-.02597.19-.02996.29l-.276673 9.361c-.01998 1.567-1.32843 2.74-2.888585 2.73-1.499227-.048-2.729772-1.333-2.630889-2.876l.751112-25.586c.003-.1.02597-.19.02996-.29l.275674-9.3620002c.01-1.567 1.328429-2.74999995 2.889584-2.72999995z" class="st3"/>
  <path id="path18" stroke-width="1.003" d="M44.845973 19.04225c1.48025-.253 2.914554.79 3.176244 2.276l2.191409 12.674c.007.05.004.1.01.151l.70117 4.062c.251703 1.486-.78607 2.925-2.267319 3.187-1.481248.252-2.939524-.721-3.236173-2.3l-2.155451-12.592c-.008-.021.004-.05-.005-.071l-.706165-4.142c-.22773-1.545.78707-2.925 2.29229-3.246z" class="st3"/>
  <path id="path20" stroke-width="1.003" d="m22.44546 20.20425-3.530825-8.994c-.602288-1.4490002.146826-3.0500002 1.59012-3.6450002 1.404339-.544 3.040405.148 3.542811 1.606L33.388521 32.99425c.01.02.01.05.01998.07l3.530825 8.994c.602288 1.45-.146826 3.051-1.591118 3.645-1.403341.545-3.039407-.147-3.541813-1.605l-9.340955-23.823c-.01-.02-.01-.04-.01998-.07z" class="st3"/>
  <path id="path22" stroke-width="1.003" d="M11.652222 32.44125c1.276491-.79 2.999454-.356 3.785524.925l6.725048 10.949c.01.02.01998.05.02996.07l2.127484 3.463c.78707 1.28.35558 3.01-.920911 3.799-1.276491.789-2.998454.426-3.855441-.925l-2.157449-3.533-.988831-1.621-3.508851-5.735-2.157449-3.523c-.7870693-1.351-.355579-3.01.920911-3.869z" class="st3"/>
  <path id="path24" stroke-width="1.003" d="M103.04416 44.98025c0-.01.01-.01.01-.02l7.52909-10.296c.95288-1.248 2.65087-1.463 3.92336-.608 1.21257.887 1.45728 2.66.57433 3.877l-7.56806 10.387c-.01.02-.03.03-.04.041l-2.51203 3.459c-.88395 1.217-2.65086 1.463-3.86343.577-1.212566-.887-1.528193-2.63-.60528-3.937z" class="st3"/>
  <path id="path26" stroke-width="1.003" d="m120.95298 68.60025 3.32607-2.163c.0849-.074.1708-.158.27667-.23l10.68037-6.943c1.33343-.828 2.98847-.426 3.88042.837.82202 1.267.42649 3-.82703 3.824l-3.34604 2.182c-.0849.064-.16081.14-.2557.203l-10.74529 7.017c-1.26251.824-2.98947.427-3.8105-.84-.82202-1.258-.49641-2.996.82103-3.886z" class="st3"/>
  <path id="path28" stroke-width="1.003" d="M129.67966 39.87925s.01-.01.02-.01l7.05366-6.836c1.12867-1.095 2.86861-1.068 3.97031.065 1.04176 1.083 1.0148 2.84-.11387 3.935l-18.36229 17.792s-.01.01-.02.01l-7.05267 6.836a2.7487498 2.752 0 0 1-3.87142-.065c-1.09171-1.133-1.06474-2.88.025-3.935z" class="st3"/>
  <path id="path30" stroke-width="1.003" d="m162.45091 73.02125-8.77961 3.44a2.5929341 2.596 0 0 1-.29266.15l-23.78188 9.31c-1.40434.553-2.99845-.156-3.5488-1.565-.57732-1.47.12984-3.07 1.53319-3.623l8.7896-3.44c.0949-.053.17979-.108.28167-.14l23.78188-9.31c1.46627-.578 3.06038.13 3.6367 1.602.54236 1.398-.15382 2.998-1.62009 3.576z" class="st3"/>
  <path id="path32" stroke-width="1.003" d="m143.40244 114.84725-9.48179-.127a2.7397604 2.743 0 0 1-2.69881-2.782c.024-1.576 1.26351-2.802 2.77372-2.778l25.52582.334c.0799 0 .15981.022.23972.024l9.4718.126c1.57014.024 2.79169 1.268 2.76672 2.854-.023 1.515-1.2615 2.731-2.84164 2.707l-25.52581-.335c-.0799 0-.14983-.022-.22973-.023z" class="st3"/>
  <path id="path34" stroke-width="1.003" d="m135.57669 146.08625-8.7117-3.81a2.7517463 2.755 0 0 1-1.41233-3.617c.63325-1.447 2.25434-2.091 3.62671-1.487l23.40033 10.24c.0599.023.0979.063.15782.085l8.70171 3.81c1.44229.635 2.08453 2.262 1.45028 3.709-.60228 1.387-2.22237 2.021-3.66466 1.395l-23.40033-10.24c-.0499-.023-.0979-.063-.14783-.085z" class="st3"/>
  <path id="path36" stroke-width="1.003" d="M130.19905 97.72025a2.8176683 2.821 0 0 1 2.31227-3.236l12.55715-2.09c.02.002.04.004.0499-.006l4.26795-.71c1.54218-.224 2.91855.808 3.22519 2.321.24771 1.489-.80405 2.928-2.2873 3.177l-12.64105 2.124c-.0499.006-.0899.003-.14083.01l-4.17706.706c-1.48225.239-2.91755-.807-3.16626-2.296z" class="st3"/>
  <path id="path38" stroke-width="1.003" d="m132.99574 123.35025 4.07518.932.0499.004 12.40732 2.828c1.51821.38 2.39717 1.85 2.11151 3.37-.33361 1.465-1.84282 2.405-3.31308 2.07l-12.50821-2.825c-.01-.001-.02-.001-.019-.012l-4.10715-.924c-1.46027-.334-2.39716-1.85-2.06356-3.325a2.8366459 2.84 0 0 1 3.36602-2.117z" class="st3"/>
  <path id="path40" stroke-width="1.003" d="m122.50914 149.84625 3.52583 2.413c.021.01.041.02.0719.04l10.50957 7.2c1.2685.91 1.54917 2.6.73313 3.911-.84699 1.251-2.59193 1.555-3.83846.705l-3.58775-2.452-10.59947-7.229c-1.23654-.85-1.55017-2.6-.70317-3.852.83701-1.25 2.56097-1.624 3.8884-.736z" class="st3"/>
</svg>
