<svg xmlns="http://www.w3.org/2000/svg" xml:space="preserve" id="Layer_1" x="0" y="0" version="1.1" viewBox="0 0 585 172">
  <style id="style2" type="text/css">
    .st0{fill:#009d3d}.st1{fill:#004187}.st3{fill:#ffe600}
  </style>
  <path id="path4" stroke-width="1.003" d="m3.415 52.857 20.06 32.574 13.69 22.235a24.628 24.628 0 0 0-.22 3.122c0 13.5 10.925 24.452 24.395 24.452.761 0 1.502-.05 2.244-.11l21.541 14.214 31.897 21.05c1.462.964 3.215-.733 2.294-2.229l-20.06-32.573-13.67-22.205c.09-.853.14-1.716.14-2.6 0-13.5-10.926-24.452-24.396-24.452-.47 0-.941.04-1.402.07L37.605 71.679 5.708 50.629c-1.462-.964-3.214.743-2.293 2.228Zm45.727 57.93c0-6.755 5.458-12.226 12.198-12.226s12.198 5.47 12.198 12.227c0 6.755-5.458 12.226-12.198 12.226-6.74-.01-12.198-5.48-12.198-12.226z" class="st0"/>
  <path id="path6" stroke-width="1.003" d="m10.786 103.69-7.882 6.937 7.882 6.946c.2 1.486.47 2.962.801 4.407 4.657 20.498 21.652 36.328 42.713 39.209l6.93 7.9 6.92-7.9c6.36-.873 12.328-2.941 17.716-5.943l9.524 6.284C85.626 168.135 73.87 172 61.23 172 27.47 172 0 144.465 0 110.627c0-13.38 4.306-25.768 11.587-35.866l5.959 9.686c-3.445 5.782-5.809 12.287-6.76 19.244z" class="st1"/>
  <path id="path8" fill="#e30613" stroke-width="1.003" d="M110.873 121.98c.33-1.445.601-2.921.801-4.407l7.882-6.946-7.882-6.936c-3.084-22.606-20.97-40.534-43.514-43.616l-6.92-7.9-6.93 7.9c-6.22.853-12.058 2.86-17.346 5.752L27.4 59.513c9.705-6.475 21.332-10.26 33.84-10.26 33.76 0 61.23 27.535 61.23 61.374 0 13.24-4.226 25.517-11.367 35.555l-5.978-9.707a50.91 50.91 0 0 0 5.748-14.495z"/>
  <path id="path12" stroke-width="1.003" d="M98.16 19.291c0-.01 0-.01 0 0l3.88-9.098a2.772 2.772 0 0 1 3.683-1.486c1.382.59 2.039 2.216 1.421 3.672L97.107 35.934v.01l-3.87 9.088c-.589 1.385-2.21 2.044-3.592 1.444-1.453-.619-2.1-2.245-1.511-3.63Z" class="st3"/>
  <path id="path14" stroke-width="1.003" d="m77.194 26.06.994-4.13c.404-1.52 1.88-2.38 3.387-2.077 1.467.354 2.376 1.884 2.023 3.354l-2.995 12.504c-.01.03-.02.05-.031.08l-.973 4.05c-.353 1.47-1.88 2.381-3.347 2.027-1.467-.354-2.416-1.834-2.071-3.395z" class="st3"/>
  <path id="path16" stroke-width="1.003" d="M63.539 0c1.501.048 2.733 1.333 2.634 2.877l-.752 25.586c-.004.1-.026.19-.03.29l-.277 9.361c-.02 1.567-1.33 2.74-2.892 2.73-1.501-.048-2.733-1.333-2.634-2.876l.752-25.586c.003-.1.026-.19.03-.29l.276-9.362c.01-1.567 1.33-2.75 2.893-2.73z" class="st3"/>
  <path id="path18" stroke-width="1.003" d="M44.899 19.042c1.482-.253 2.918.79 3.18 2.276l2.194 12.674c.007.05.004.1.01.151l.702 4.062c.252 1.486-.787 2.925-2.27 3.187-1.483.252-2.943-.721-3.24-2.3L43.317 26.5c-.008-.021.004-.05-.005-.071l-.707-4.142c-.228-1.545.788-2.925 2.295-3.246z" class="st3"/>
  <path id="path20" stroke-width="1.003" d="m22.472 20.204-3.535-8.994c-.603-1.449.147-3.05 1.592-3.645 1.406-.544 3.044.148 3.547 1.606l9.352 23.823c.01.02.01.05.02.07l3.535 8.994c.603 1.45-.147 3.051-1.593 3.645-1.405.545-3.043-.147-3.546-1.605l-9.352-23.823c-.01-.02-.01-.04-.02-.07z" class="st3"/>
  <path id="path22" stroke-width="1.003" d="M11.666 32.441c1.278-.79 3.003-.356 3.79.925l6.733 10.949c.01.02.02.05.03.07l2.13 3.463c.788 1.28.356 3.01-.922 3.799-1.278.789-3.002.426-3.86-.925l-2.16-3.533-.99-1.621-3.513-5.735-2.16-3.523c-.788-1.351-.356-3.01.922-3.869z" class="st3"/>
  <path id="path24" stroke-width="1.003" d="M103.166 44.98c0-.01.01-.01.01-.02l7.538-10.296c.954-1.248 2.654-1.463 3.928-.608 1.214.887 1.459 2.66.575 3.877L107.64 48.32c-.01.02-.03.03-.04.041l-2.515 3.459c-.885 1.217-2.654 1.463-3.868.577-1.214-.887-1.53-2.63-.606-3.937z" class="st3"/>
  <path id="path26" stroke-width="1.003" d="m121.096 68.6 3.33-2.163c.085-.074.171-.158.277-.23l10.693-6.943c1.335-.828 2.992-.426 3.885.837.823 1.267.427 3-.828 3.824l-3.35 2.182c-.085.064-.161.14-.256.203l-10.758 7.017c-1.264.824-2.993.427-3.815-.84-.823-1.258-.497-2.996.822-3.886z" class="st3"/>
  <path id="path28" stroke-width="1.003" d="M129.833 39.879s.01-.01.02-.01l7.062-6.836c1.13-1.095 2.872-1.068 3.975.065 1.043 1.083 1.016 2.84-.114 3.935l-18.384 17.792s-.01.01-.02.01l-7.061 6.836a2.752 2.752 0 0 1-3.876-.065c-1.093-1.133-1.066-2.88.025-3.935z" class="st3"/>
  <path id="path30" stroke-width="1.003" d="m162.643 73.021-8.79 3.44a2.596 2.596 0 0 1-.293.15l-23.81 9.31c-1.406.553-3.002-.156-3.553-1.565-.578-1.47.13-3.07 1.535-3.623l8.8-3.44c.095-.053.18-.108.282-.14l23.81-9.31c1.468-.578 3.064.13 3.641 1.602.543 1.398-.154 2.998-1.622 3.576z" class="st3"/>
  <path id="path32" stroke-width="1.003" d="m143.572 114.847-9.493-.127a2.743 2.743 0 0 1-2.702-2.782c.024-1.576 1.265-2.802 2.777-2.778l25.556.334c.08 0 .16.022.24.024l9.483.126c1.572.024 2.795 1.268 2.77 2.854-.023 1.515-1.263 2.731-2.845 2.707l-25.556-.335c-.08 0-.15-.022-.23-.023z" class="st3"/>
  <path id="path34" stroke-width="1.003" d="m135.737 146.086-8.722-3.81a2.755 2.755 0 0 1-1.414-3.617c.634-1.447 2.257-2.091 3.631-1.487l23.428 10.24c.06.023.098.063.158.085l8.712 3.81c1.444.635 2.087 2.262 1.452 3.709-.603 1.387-2.225 2.021-3.669 1.395l-23.428-10.24c-.05-.023-.098-.063-.148-.085z" class="st3"/>
  <path id="path36" stroke-width="1.003" d="M130.353 97.72a2.821 2.821 0 0 1 2.315-3.236l12.572-2.09c.02.002.04.004.05-.006l4.273-.71c1.544-.224 2.922.808 3.229 2.321.248 1.489-.805 2.928-2.29 3.177L137.846 99.3c-.05.006-.09.003-.141.01l-4.182.706c-1.484.239-2.921-.807-3.17-2.296z" class="st3"/>
  <path id="path38" stroke-width="1.003" d="m133.153 123.35 4.08.932.05.004 12.422 2.828c1.52.38 2.4 1.85 2.114 3.37-.334 1.465-1.845 2.405-3.317 2.07l-12.523-2.825c-.01-.001-.02-.001-.019-.012l-4.112-.924c-1.462-.334-2.4-1.85-2.066-3.325a2.84 2.84 0 0 1 3.37-2.117z" class="st3"/>
  <path id="path40" stroke-width="1.003" d="m122.654 149.846 3.53 2.413c.021.01.041.02.072.04l10.522 7.2c1.27.91 1.551 2.6.734 3.911-.848 1.251-2.595 1.555-3.843.705l-3.592-2.452-10.612-7.229c-1.238-.85-1.552-2.6-.704-3.852.838-1.25 2.564-1.624 3.893-.736z" class="st3"/>
  <g id="g66" transform="matrix(1.00886 0 0 1.00987 -16.373 -20.5)">
    <path id="path50" d="M211.14 68.92h17.9v60.33h25.82v13.13h-43.73V68.92Z" class="st1"/>
    <path id="path52" d="M303.69 116.23c0 4.34.29 7.96.87 10.85.58 2.89 1.26 5.21 2.06 6.94.87 2.1 1.88 3.73 3.04 4.88l-13.78 4.34c-.8-.72-1.52-1.63-2.17-2.71-.58-.94-1.14-2.08-1.68-3.42-.54-1.34-.99-2.91-1.36-4.72-1.23 3.4-3.04 6.02-5.42 7.87-2.39 1.84-5.53 2.77-9.44 2.77-3.55 0-6.64-.65-9.28-1.95-2.64-1.3-4.83-3.13-6.56-5.48-1.74-2.35-3.02-5.19-3.85-8.52-.83-3.33-1.25-7.01-1.25-11.07 0-4.12.67-7.96 2.01-11.5 1.34-3.54 3.2-6.6 5.59-9.17 2.39-2.57 5.24-4.57 8.57-6.02 3.33-1.45 7.01-2.17 11.07-2.17 2.24 0 4.63.16 7.16.49 2.53.33 4.84.69 6.94 1.09 2.1.4 3.85.76 5.26 1.08 1.41.33 2.15.49 2.22.49zm-21.97 12.8c.98-.94 1.83-2.21 2.55-3.8.72-1.59 1.28-3.42 1.68-5.48.4-2.06.6-4.25.6-6.56V100.6c-.51-.22-1.21-.41-2.12-.6-.91-.18-1.68-.27-2.33-.27-1.74 0-3.18.38-4.34 1.14-1.16.76-2.08 1.81-2.77 3.15-.69 1.34-1.18 2.95-1.46 4.83-.29 1.88-.43 3.91-.43 6.08 0 2.03.04 3.96.11 5.8.07 1.84.31 3.49.71 4.94.4 1.45.96 2.6 1.68 3.47.72.87 1.74 1.3 3.04 1.3 1.07 0 2.1-.47 3.08-1.41z" class="st1"/>
    <path id="path54" d="M312.04 88.34h8.9l1.84-11.17 14.87-3.26v14.43h12.8l-2.06 12.59h-10.74v24.2c0 3.18 1.66 4.77 4.99 4.77 1.81 0 3.54-.18 5.21-.54.87-.22 1.74-.43 2.6-.65l2.93 11.5c-1.45.51-3.46 1.07-6.02 1.68-2.57.61-5.7.92-9.39.92-5.42 0-9.68-1.12-12.75-3.36-3.08-2.24-4.61-6.04-4.61-11.39v-27.13h-8.57z" class="st1"/>
    <path id="path56" d="M356.91 103.81c1.41-3.72 3.36-6.83 5.86-9.33 2.49-2.5 5.41-4.39 8.73-5.7 3.33-1.3 6.94-1.95 10.85-1.95 3.4 0 6.29.42 8.68 1.25 2.39.83 4.34 1.99 5.86 3.47 1.52 1.48 2.64 3.22 3.36 5.21.72 1.99 1.09 4.14 1.09 6.46 0 2.61-.65 5.06-1.95 7.38-1.3 2.31-3.16 4.36-5.59 6.13-2.42 1.77-5.35 3.24-8.79 4.39-3.44 1.16-7.32 1.92-11.66 2.28.51 2.17 1.43 3.93 2.77 5.26 1.34 1.34 3.38 2.01 6.13 2.01 1.59 0 3.29-.18 5.1-.54 1.81-.36 3.47-.76 4.99-1.19 1.81-.5 3.58-1.08 5.32-1.74l3.25 11.28c-1.95.94-4.09 1.77-6.4 2.5-1.95.58-4.21 1.12-6.78 1.63-2.57.5-5.3.76-8.19.76-4.41 0-8.19-.65-11.34-1.95-3.15-1.3-5.71-3.11-7.7-5.42-1.99-2.31-3.44-5.12-4.34-8.41-.91-3.29-1.36-6.93-1.36-10.9-.01-4.87.7-9.16 2.11-12.88zm19.74-3.53c-.98.8-1.75 1.84-2.33 3.15-.58 1.3-1.01 2.75-1.3 4.34-.29 1.59-.47 3.15-.54 4.67 2.17-.07 4-.4 5.48-.98 1.48-.58 2.69-1.3 3.63-2.17.94-.87 1.63-1.81 2.06-2.82.44-1.01.65-1.95.65-2.82 0-1.37-.38-2.48-1.14-3.31-.76-.83-1.75-1.25-2.98-1.25-1.37 0-2.55.39-3.53 1.19z" class="st1"/>
    <path id="path58" d="M434.54 104.18c-.94.43-1.85 1.1-2.71 2.01-.87.91-1.59 2.06-2.17 3.47-.58 1.41-.87 3.09-.87 5.05v27.67h-17.14v-28.21c0-4.34-.31-7.94-.92-10.8-.62-2.86-1.32-5.19-2.12-7-.87-2.02-1.84-3.65-2.93-4.88l13.78-4.34c.58.72 1.19 1.56 1.85 2.5.5.8 1.05 1.81 1.63 3.04.58 1.23 1.05 2.64 1.41 4.23 1.81-3.47 3.96-5.97 6.46-7.49 2.5-1.52 5.44-2.28 8.84-2.28 1.52 0 2.88.13 4.07.38 1.19.25 2.19.53 2.98.81l-4.45 16.38c-.51-.29-1.18-.56-2.01-.81-.83-.25-1.86-.38-3.09-.38-.8 0-1.67.22-2.61.65z" class="st1"/>
    <path id="path60" d="M484.56 142.38v-33.85c0-2.53-.31-4.57-.92-6.13-.62-1.55-1.76-2.33-3.42-2.33-2.03 0-3.91 1.32-5.64 3.96-1.74 2.64-2.6 6.35-2.6 11.12v27.23h-17.14v-28.21c0-4.34-.31-7.94-.92-10.8-.62-2.86-1.32-5.19-2.12-7-.87-2.02-1.84-3.65-2.93-4.88l13.78-4.34c.65.72 1.3 1.56 1.95 2.5.58.8 1.14 1.83 1.68 3.09.54 1.27.99 2.7 1.36 4.29 1.88-3.4 4.47-5.9 7.76-7.49 3.29-1.59 6.89-2.39 10.8-2.39 5.64 0 9.66 1.72 12.04 5.15 2.39 3.44 3.58 8.01 3.58 13.72v36.35h-17.26z" class="st1"/>
    <path id="path62" d="M528.82 64.47c1.59 1.81 2.39 4.09 2.39 6.84 0 2.82-.81 5.17-2.44 7.05s-4.07 2.82-7.32 2.82c-3.04 0-5.37-.92-7-2.77-1.63-1.84-2.44-4.03-2.44-6.56 0-2.89.83-5.3 2.5-7.21 1.66-1.92 4.12-2.88 7.38-2.88 3.03 0 5.34.91 6.93 2.71zm-11.93 75.14c-2.53-2.13-3.8-5.15-3.8-9.06V87.91h17.14v37.76c0 1.66.25 2.79.76 3.36.51.58 1.26.87 2.28.87.58 0 1.16-.05 1.74-.16.58-.11.94-.2 1.09-.27l1.52 10.74c-.07.07-.4.24-.98.49-.58.26-1.34.54-2.28.87-.94.33-2.06.61-3.36.87-1.3.25-2.68.38-4.12.38-4.13-.01-7.46-1.08-9.99-3.21z" class="st1"/>
    <path id="path64" d="M590.12 116.23c0 4.34.29 7.96.87 10.85.58 2.89 1.26 5.21 2.06 6.94.87 2.1 1.88 3.73 3.04 4.88l-13.78 4.34c-.8-.72-1.52-1.63-2.17-2.71-.58-.94-1.14-2.08-1.68-3.42-.54-1.34-.99-2.91-1.36-4.72-1.23 3.4-3.04 6.02-5.42 7.87-2.39 1.84-5.53 2.77-9.44 2.77-3.55 0-6.64-.65-9.28-1.95-2.64-1.3-4.83-3.13-6.56-5.48-1.74-2.35-3.02-5.19-3.85-8.52-.83-3.33-1.25-7.01-1.25-11.07 0-4.12.67-7.96 2.01-11.5 1.34-3.54 3.2-6.6 5.59-9.17 2.39-2.57 5.24-4.57 8.57-6.02 3.33-1.45 7.01-2.17 11.07-2.17 2.24 0 4.63.16 7.16.49 2.53.33 4.84.69 6.94 1.09 2.1.4 3.85.76 5.26 1.08 1.41.33 2.15.49 2.22.49zm-21.97 12.8c.98-.94 1.83-2.21 2.55-3.8.72-1.59 1.28-3.42 1.68-5.48.4-2.06.6-4.25.6-6.56V100.6c-.51-.22-1.21-.41-2.12-.6-.91-.18-1.68-.27-2.33-.27-1.74 0-3.18.38-4.34 1.14-1.16.76-2.08 1.81-2.77 3.15-.69 1.34-1.18 2.95-1.46 4.83-.29 1.88-.43 3.91-.43 6.08 0 2.03.04 3.96.11 5.8.07 1.84.31 3.49.71 4.94.4 1.45.96 2.6 1.68 3.47.72.87 1.74 1.3 3.04 1.3 1.08 0 2.11-.47 3.08-1.41z" class="st1"/>
  </g>
  <g id="g118" transform="matrix(1.00326 0 0 1.01266 -12.08 -23.938)">
    <path id="path68" d="M208.04 159.68h13.46v3.02h-9.48v6.33h7.8l-.5 3.05h-7.3v7.27H222v3.01h-13.97v-22.68z" class="st0"/>
    <path id="path70" d="m222.71 182.36 5.59-8.84-4.89-7.84h4.42l2.11 3.45c.13.22.31.57.54 1.04.22.47.45.94.67 1.41.27-.4.53-.8.79-1.21.26-.4.49-.79.69-1.17.54-.98.92-1.82 1.16-2.51.23-.69.35-1.03.35-1h3.95c0-.02-.13.35-.4 1.11-.27.76-.74 1.76-1.41 3.02-.38.67-.81 1.33-1.31 1.99-.49.66-.97 1.24-1.44 1.76l5.43 8.81h-4.35l-2.48-4.32-1.31-2.45-1.31 2.48-2.51 4.29h-4.29z" class="st0"/>
    <path id="path72" d="M241.43 189.76v-15.84c0-1.34-.09-2.46-.27-3.37-.18-.9-.37-1.64-.57-2.19-.25-.65-.51-1.17-.8-1.57l3.01-1.21c.27.27.51.6.74 1.01.18.33.36.74.54 1.22.18.48.31 1.04.4 1.69.38-1.34.98-2.36 1.81-3.05.82-.69 1.98-1.04 3.45-1.04 1.05 0 1.96.2 2.73.59.77.39 1.41.95 1.91 1.67.5.73.88 1.6 1.12 2.63.25 1.03.37 2.17.37 3.42 0 1.27-.19 2.45-.57 3.53-.38 1.08-.92 2.02-1.62 2.8-.7.78-1.55 1.4-2.53 1.84-.98.45-2.08.67-3.28.67-.42 0-.85-.02-1.29-.07-.44-.05-.88-.09-1.32-.13v6.73zm6.13-21.1c-.47.38-.88.88-1.22 1.51-.35.62-.61 1.33-.8 2.11-.19.78-.28 1.59-.28 2.41v4.82c.22.07.56.14 1 .23.45.09.84.13 1.17.13.85 0 1.55-.14 2.11-.44.56-.29 1-.69 1.34-1.21.33-.51.57-1.13.7-1.84.13-.71.2-1.49.2-2.34 0-.78-.02-1.53-.07-2.24-.05-.71-.16-1.35-.35-1.91-.19-.56-.46-1-.82-1.32-.36-.32-.84-.49-1.44-.49-.55.01-1.07.2-1.54.58z" class="st0"/>
    <path id="path74" d="M258.87 170.47c.41-1.14.98-2.09 1.71-2.86s1.58-1.35 2.56-1.74c.98-.39 2.04-.59 3.18-.59 1 0 1.86.12 2.56.37s1.28.58 1.72 1c.45.42.78.93.99 1.51.21.58.32 1.2.32 1.87 0 .8-.22 1.57-.67 2.29-.45.73-1.09 1.36-1.93 1.91-.84.55-1.85.98-3.03 1.31-1.18.32-2.51.5-3.98.52.07.51.17 1 .32 1.46.14.46.36.86.64 1.21s.64.62 1.09.82c.45.2 1.01.3 1.67.3.49 0 1.02-.06 1.57-.17.56-.11 1.07-.25 1.54-.4.56-.18 1.11-.38 1.64-.6l1 2.38c-.58.29-1.21.55-1.88.77-.58.2-1.25.38-2.01.54-.76.16-1.56.23-2.41.23-1.3 0-2.4-.19-3.32-.59-.92-.39-1.66-.94-2.24-1.66-.58-.71-1-1.57-1.27-2.58s-.4-2.12-.4-3.35c.01-1.5.21-2.81.63-3.95zm5.32-2.06c-.48.35-.87.79-1.16 1.34-.29.55-.5 1.16-.62 1.84-.12.68-.2 1.37-.22 2.06 1.07-.04 1.98-.18 2.73-.42.75-.23 1.36-.52 1.82-.87.47-.35.81-.72 1.02-1.12.21-.4.32-.8.32-1.21 0-.65-.19-1.17-.57-1.56-.38-.39-.88-.59-1.51-.59-.72.01-1.33.18-1.81.53z" class="st0"/>
    <path id="path76" d="M281.36 169.46c-.4.2-.76.48-1.07.82a4.315 4.315 0 0 0-1.07 2.9v9.18h-3.82v-8.44c0-1.34-.09-2.46-.27-3.37-.18-.9-.37-1.64-.57-2.19-.25-.65-.51-1.17-.8-1.57l3.01-1.21c.2.25.41.55.64.91.18.31.36.68.54 1.11.18.42.32.93.43 1.51.45-1.29 1.09-2.23 1.94-2.8.85-.57 1.81-.85 2.88-.85.51 0 .99.06 1.44.18.45.12.66.18.64.18l-1.07 3.72c.02 0-.11-.06-.38-.18-.28-.12-.7-.18-1.26-.18-.41-.02-.81.08-1.21.28z" class="st0"/>
    <path id="path78" d="M290.93 158.88c.38.42.57.97.57 1.64 0 .67-.2 1.23-.59 1.67-.39.45-.97.67-1.72.67-.72 0-1.27-.22-1.66-.65-.39-.44-.59-.97-.59-1.59 0-.69.19-1.26.59-1.71.39-.45.98-.67 1.76-.67.72 0 1.27.22 1.64.64zm-2.67 22.56c-.63-.7-.94-1.61-.94-2.73v-13.03h3.82v12.69c0 .51.08.86.23 1.04.16.18.39.27.7.27h.29c.1 0 .19-.01.28-.03.09 0 .19-.01.3-.03l.4 2.41c-.16.09-.36.17-.6.23-.2.07-.45.12-.75.17-.3.05-.64.07-1.02.07-1.19-.01-2.09-.36-2.71-1.06z" class="st0"/>
    <path id="path80" d="M295.64 170.47c.41-1.14.98-2.09 1.71-2.86s1.58-1.35 2.56-1.74c.98-.39 2.04-.59 3.18-.59 1 0 1.86.12 2.56.37s1.28.58 1.73 1c.45.42.78.93.99 1.51.21.58.32 1.2.32 1.87 0 .8-.22 1.57-.67 2.29-.45.73-1.09 1.36-1.93 1.91-.84.55-1.85.98-3.03 1.31-1.18.32-2.51.5-3.98.52.07.51.17 1 .32 1.46.14.46.36.86.64 1.21s.64.62 1.09.82c.45.2 1.01.3 1.67.3.49 0 1.02-.06 1.57-.17.56-.11 1.07-.25 1.54-.4.56-.18 1.11-.38 1.64-.6l1 2.38c-.58.29-1.21.55-1.88.77-.58.2-1.25.38-2.01.54-.76.16-1.56.23-2.41.23-1.3 0-2.4-.19-3.32-.59-.92-.39-1.66-.94-2.24-1.66-.58-.71-1-1.57-1.27-2.58s-.4-2.12-.4-3.35c0-1.5.21-2.81.62-3.95zm5.33-2.06c-.48.35-.87.79-1.16 1.34-.29.55-.5 1.16-.62 1.84-.12.68-.2 1.37-.22 2.06 1.07-.04 1.98-.18 2.73-.42.75-.23 1.36-.52 1.82-.87.47-.35.81-.72 1.02-1.12.21-.4.32-.8.32-1.21 0-.65-.19-1.17-.57-1.56-.38-.39-.88-.59-1.51-.59-.73.01-1.34.18-1.81.53z" class="st0"/>
    <path id="path82" d="M322.25 182.36v-10.82c0-.94-.17-1.69-.5-2.26-.34-.57-.91-.85-1.71-.85-.51 0-1.01.13-1.49.38-.48.26-.91.63-1.29 1.12-.38.49-.69 1.09-.92 1.79-.24.7-.35 1.49-.35 2.36v8.27h-3.82v-8.44c0-1.34-.09-2.46-.27-3.37-.18-.9-.37-1.64-.57-2.19-.25-.65-.51-1.17-.8-1.57l3.01-1.21c.22.25.45.55.67.91.18.31.36.7.54 1.16.18.46.32.98.44 1.56.58-1.34 1.42-2.3 2.51-2.9a7.15 7.15 0 0 1 3.45-.89c1.72 0 2.96.52 3.73 1.56s1.16 2.44 1.16 4.2v11.19z" class="st0"/>
    <path id="path84" d="M339.3 169.6c-.34-.38-.68-.7-1.02-.97-.35-.27-.81-.4-1.39-.4-.34 0-.71.05-1.12.15-.41.1-.8.35-1.16.74-.36.39-.65.97-.89 1.73-.23.76-.35 1.79-.35 3.08 0 1.32.12 2.36.35 3.13.24.77.54 1.37.91 1.79.37.43.76.7 1.19.82.42.12.84.18 1.24.18.31 0 .64-.03.97-.08.34-.06.66-.12.97-.2.31-.08.59-.15.82-.22.23-.07.41-.12.52-.17l.94 2.41c-.07.02-.22.09-.45.2-.24.11-.55.22-.95.34-.4.11-.88.22-1.44.32-.56.1-1.18.15-1.88.15-1.29 0-2.4-.19-3.32-.59-.92-.39-1.67-.94-2.26-1.66-.59-.71-1.03-1.57-1.31-2.58s-.42-2.12-.42-3.35c0-1.47.2-2.78.59-3.92.39-1.14.93-2.09 1.62-2.86a6.88 6.88 0 0 1 2.45-1.76c.94-.4 1.94-.6 3.01-.6 1.05 0 1.94.2 2.66.6.73.4 1.35.96 1.86 1.67z" class="st0"/>
    <path id="path86" d="M347.47 158.88c.38.42.57.97.57 1.64 0 .67-.2 1.23-.59 1.67-.39.45-.97.67-1.72.67-.72 0-1.27-.22-1.66-.65-.39-.44-.59-.97-.59-1.59 0-.69.19-1.26.59-1.71.39-.45.98-.67 1.76-.67.71 0 1.26.22 1.64.64zm-2.68 22.56c-.63-.7-.94-1.61-.94-2.73v-13.03h3.82v12.69c0 .51.08.86.23 1.04.16.18.39.27.7.27h.29c.11 0 .19-.01.28-.03.09 0 .19-.01.3-.03l.4 2.41c-.16.09-.36.17-.6.23-.2.07-.45.12-.75.17-.3.05-.64.07-1.02.07-1.18-.01-2.09-.36-2.71-1.06z" class="st0"/>
    <path id="path88" d="M366.02 174.29c0 1.34.08 2.46.25 3.37.17.91.35 1.64.55 2.19.25.67.51 1.19.8 1.57l-2.98 1.21c-.29-.29-.56-.64-.8-1.04-.2-.36-.39-.79-.57-1.29-.18-.5-.29-1.1-.34-1.79-.38 1.34-.99 2.35-1.83 3.03-.84.68-1.97 1.02-3.4 1.02-1.05 0-1.96-.2-2.73-.59-.77-.39-1.41-.95-1.93-1.67-.51-.73-.89-1.6-1.14-2.63-.25-1.03-.37-2.17-.37-3.42 0-1.27.2-2.45.59-3.53a8.55 8.55 0 0 1 1.64-2.8c.7-.78 1.55-1.4 2.53-1.84.98-.45 2.06-.67 3.25-.67.67 0 1.37.05 2.09.15.73.1 1.4.21 2.03.32.62.11 1.16.22 1.59.32.44.1.69.16.75.18v7.91zm-6.12 5.02c.47-.38.88-.88 1.22-1.49.35-.61.61-1.32.8-2.11.19-.79.28-1.6.28-2.43v-4.82c-.22-.07-.56-.14-1-.23-.45-.09-.85-.13-1.21-.13-.85 0-1.55.15-2.09.44-.55.29-.99.69-1.32 1.21-.33.51-.57 1.13-.7 1.84-.13.71-.2 1.5-.2 2.34 0 .78.02 1.53.07 2.24.04.72.16 1.35.35 1.91.19.56.46 1 .82 1.32.36.32.84.49 1.44.49.55-.01 1.07-.2 1.54-.58z" class="st0"/>
    <path id="path90" d="M375.43 165.28c.65 0 1.28.07 1.91.2.62.13 1.18.29 1.67.47.58.2 1.12.41 1.61.64l-1.14 2.61c-.45-.2-.89-.38-1.34-.54-.38-.13-.8-.26-1.26-.38-.46-.12-.91-.18-1.36-.18-.51 0-.95.12-1.32.37-.37.25-.55.61-.55 1.11 0 1.27.93 2.27 2.78 2.98.69.27 1.32.55 1.88.85.56.3 1.03.65 1.42 1.05.39.4.69.87.89 1.39.2.52.3 1.14.3 1.86 0 .63-.13 1.24-.38 1.84-.26.6-.64 1.14-1.14 1.61-.5.47-1.12.84-1.84 1.12-.73.28-1.55.42-2.46.42-.74 0-1.46-.08-2.18-.25-.71-.17-1.36-.35-1.92-.55-.57-.2-1.02-.39-1.36-.57l-.5-.23 1.24-2.81.43.24c.29.18.66.37 1.11.57.45.2.93.39 1.44.55.51.17.98.25 1.41.25.78 0 1.36-.16 1.74-.47.38-.31.57-.73.57-1.24 0-.58-.21-1.11-.62-1.59-.41-.48-1.03-.88-1.86-1.19-1.72-.65-2.95-1.38-3.7-2.21-.75-.83-1.12-1.9-1.12-3.21 0-.62.15-1.22.44-1.79.29-.57.69-1.07 1.19-1.51.5-.44 1.1-.78 1.79-1.02.68-.27 1.43-.39 2.23-.39z" class="st0"/>
    <path id="path92" d="M404.94 182.63c-.05-.02-.15-.13-.3-.32-.16-.19-.33-.45-.52-.79-.19-.33-.37-.75-.55-1.26-.18-.5-.29-1.09-.34-1.76-.38 1.34-.99 2.35-1.83 3.03-.84.68-1.97 1.02-3.4 1.02-1.05 0-1.96-.2-2.73-.59-.77-.39-1.41-.95-1.93-1.67-.51-.73-.89-1.6-1.14-2.63-.25-1.03-.37-2.17-.37-3.42 0-1.27.2-2.45.59-3.53a8.55 8.55 0 0 1 1.64-2.8c.7-.78 1.55-1.4 2.53-1.84.98-.45 2.06-.67 3.25-.67.4 0 .83.02 1.29.07.46.05.91.1 1.36.17v-7.57l3.82.67v15.54c0 1.34.08 2.45.23 3.33.16.88.34 1.6.54 2.14.2.55.38.94.55 1.19.17.25.26.4.29.47zm-4.76-3.35c.47-.38.88-.88 1.22-1.49.35-.61.61-1.31.8-2.09.19-.78.28-1.59.28-2.41v-4.82c-.22-.07-.56-.14-1-.23-.45-.09-.85-.13-1.21-.13-.85 0-1.55.15-2.09.44-.55.29-.99.69-1.32 1.21-.33.51-.57 1.13-.7 1.84-.13.71-.2 1.5-.2 2.34 0 .78.02 1.53.07 2.24.04.72.16 1.35.35 1.89.19.55.46.98.82 1.31.36.32.84.49 1.44.49.56-.02 1.08-.21 1.54-.59z" class="st0"/>
    <path id="path94" d="M410.42 170.47c.41-1.14.98-2.09 1.71-2.86s1.58-1.35 2.56-1.74c.98-.39 2.04-.59 3.18-.59 1 0 1.86.12 2.56.37s1.28.58 1.72 1c.45.42.78.93.99 1.51.21.58.32 1.2.32 1.87 0 .8-.22 1.57-.67 2.29-.45.73-1.09 1.36-1.93 1.91-.84.55-1.85.98-3.03 1.31-1.18.32-2.51.5-3.98.52.07.51.17 1 .32 1.46.14.46.36.86.64 1.21s.64.62 1.09.82c.45.2 1.01.3 1.67.3.49 0 1.02-.06 1.57-.17.56-.11 1.07-.25 1.54-.4.56-.18 1.11-.38 1.64-.6l1 2.38c-.58.29-1.21.55-1.88.77-.58.2-1.25.38-2.01.54-.76.16-1.56.23-2.41.23-1.3 0-2.4-.19-3.32-.59-.92-.39-1.66-.94-2.24-1.66-.58-.71-1-1.57-1.27-2.58s-.4-2.12-.4-3.35c.01-1.5.21-2.81.63-3.95zm5.32-2.06c-.48.35-.87.79-1.16 1.34-.29.55-.5 1.16-.62 1.84-.12.68-.2 1.37-.22 2.06 1.07-.04 1.98-.18 2.73-.42.75-.23 1.36-.52 1.82-.87.47-.35.81-.72 1.02-1.12.21-.4.32-.8.32-1.21 0-.65-.19-1.17-.57-1.56-.38-.39-.88-.59-1.51-.59-.72.01-1.33.18-1.81.53z" class="st0"/>
    <path id="path96" d="M448.65 174.29c0 1.34.08 2.46.25 3.37.17.91.35 1.64.55 2.19.25.67.51 1.19.8 1.57l-2.98 1.21c-.29-.29-.56-.64-.8-1.04-.2-.36-.39-.79-.57-1.29-.18-.5-.29-1.1-.34-1.79-.38 1.34-.99 2.35-1.83 3.03-.84.68-1.97 1.02-3.4 1.02-1.05 0-1.96-.2-2.73-.59-.77-.39-1.41-.95-1.93-1.67-.51-.73-.89-1.6-1.14-2.63-.25-1.03-.37-2.17-.37-3.42 0-1.27.2-2.45.59-3.53a8.55 8.55 0 0 1 1.64-2.8c.7-.78 1.55-1.4 2.53-1.84.98-.45 2.06-.67 3.25-.67.67 0 1.37.05 2.09.15.73.1 1.4.21 2.03.32.62.11 1.16.22 1.59.32.43.1.69.16.75.18v7.91zm-6.13 5.02c.47-.38.88-.88 1.22-1.49.35-.61.61-1.32.8-2.11.19-.79.28-1.6.28-2.43v-4.82c-.22-.07-.56-.14-1-.23-.45-.09-.85-.13-1.21-.13-.85 0-1.55.15-2.09.44-.55.29-.99.69-1.32 1.21-.33.51-.57 1.13-.7 1.84-.13.71-.2 1.5-.2 2.34 0 .78.02 1.53.07 2.24.04.72.16 1.35.35 1.91.19.56.46 1 .82 1.32.36.32.84.49 1.44.49.56-.01 1.07-.2 1.54-.58z" class="st0"/>
    <path id="path98" d="M452.77 189.76v-15.84c0-1.34-.09-2.46-.27-3.37-.18-.9-.37-1.64-.57-2.19-.25-.65-.51-1.17-.8-1.57l3.01-1.21c.27.27.51.6.74 1.01.18.33.36.74.54 1.22.18.48.31 1.04.4 1.69.38-1.34.98-2.36 1.81-3.05.82-.69 1.98-1.04 3.45-1.04 1.05 0 1.96.2 2.73.59.77.39 1.41.95 1.91 1.67.5.73.88 1.6 1.12 2.63.25 1.03.37 2.17.37 3.42 0 1.27-.19 2.45-.57 3.53-.38 1.08-.92 2.02-1.62 2.8-.7.78-1.55 1.4-2.53 1.84-.98.45-2.08.67-3.28.67-.43 0-.85-.02-1.29-.07-.43-.05-.88-.09-1.32-.13v6.73zm6.13-21.1c-.47.38-.88.88-1.22 1.51-.35.62-.61 1.33-.8 2.11-.19.78-.28 1.59-.28 2.41v4.82c.22.07.56.14 1 .23.45.09.84.13 1.17.13.85 0 1.55-.14 2.11-.44.56-.29 1-.69 1.34-1.21.33-.51.57-1.13.7-1.84.13-.71.2-1.49.2-2.34 0-.78-.02-1.53-.07-2.24-.05-.71-.16-1.35-.35-1.91-.19-.56-.46-1-.82-1.32-.36-.32-.84-.49-1.44-.49-.56.01-1.07.2-1.54.58z" class="st0"/>
    <path id="path100" d="M476.85 169.46c-.4.2-.76.48-1.07.82a4.315 4.315 0 0 0-1.07 2.9v9.18h-3.82v-8.44c0-1.34-.09-2.46-.27-3.37-.18-.9-.37-1.64-.57-2.19-.25-.65-.51-1.17-.8-1.57l3.01-1.21c.2.25.41.55.64.91.18.31.36.68.54 1.11.18.42.32.93.44 1.51.45-1.29 1.09-2.23 1.94-2.8.85-.57 1.81-.85 2.88-.85.51 0 .99.06 1.44.18.45.12.66.18.64.18l-1.07 3.72c.02 0-.11-.06-.38-.18-.28-.12-.7-.18-1.26-.18-.42-.02-.82.08-1.22.28z" class="st0"/>
    <path id="path102" d="M481.55 170.47c.41-1.14.98-2.09 1.71-2.86s1.58-1.35 2.56-1.74c.98-.39 2.04-.59 3.18-.59 1 0 1.86.12 2.56.37s1.28.58 1.73 1c.45.42.78.93.99 1.51.21.58.32 1.2.32 1.87 0 .8-.22 1.57-.67 2.29-.45.73-1.09 1.36-1.93 1.91-.84.55-1.85.98-3.03 1.31-1.18.32-2.51.5-3.98.52.07.51.17 1 .32 1.46.14.46.36.86.64 1.21s.64.62 1.09.82c.45.2 1.01.3 1.67.3.49 0 1.02-.06 1.57-.17.56-.11 1.07-.25 1.54-.4.56-.18 1.11-.38 1.64-.6l1 2.38c-.58.29-1.21.55-1.88.77-.58.2-1.25.38-2.01.54-.76.16-1.56.23-2.41.23-1.3 0-2.4-.19-3.32-.59-.92-.39-1.66-.94-2.24-1.66-.58-.71-1-1.57-1.27-2.58s-.4-2.12-.4-3.35c0-1.5.21-2.81.62-3.95zm5.33-2.06c-.48.35-.87.79-1.16 1.34-.29.55-.5 1.16-.62 1.84-.12.68-.2 1.37-.22 2.06 1.07-.04 1.98-.18 2.73-.42.75-.23 1.36-.52 1.82-.87.47-.35.81-.72 1.02-1.12.21-.4.32-.8.32-1.21 0-.65-.19-1.17-.57-1.56-.38-.39-.88-.59-1.51-.59-.72.01-1.33.18-1.81.53z" class="st0"/>
    <path id="path104" d="M508.16 182.36v-10.82c0-.94-.17-1.69-.5-2.26-.34-.57-.91-.85-1.71-.85-.51 0-1.01.13-1.49.38-.48.26-.91.63-1.29 1.12-.38.49-.69 1.09-.92 1.79-.24.7-.35 1.49-.35 2.36v8.27h-3.82v-8.44c0-1.34-.09-2.46-.27-3.37-.18-.9-.37-1.64-.57-2.19-.25-.65-.51-1.17-.8-1.57l3.01-1.21c.22.25.45.55.67.91.18.31.36.7.54 1.16.18.46.32.98.44 1.56.58-1.34 1.42-2.3 2.51-2.9a7.15 7.15 0 0 1 3.45-.89c1.72 0 2.96.52 3.73 1.56s1.16 2.44 1.16 4.2v11.19z" class="st0"/>
    <path id="path106" d="M528.26 182.63c-.05-.02-.15-.13-.3-.32-.16-.19-.33-.45-.52-.79-.19-.33-.37-.75-.55-1.26-.18-.5-.29-1.09-.34-1.76-.38 1.34-.99 2.35-1.83 3.03-.84.68-1.97 1.02-3.4 1.02-1.05 0-1.96-.2-2.73-.59-.77-.39-1.41-.95-1.93-1.67-.51-.73-.89-1.6-1.14-2.63-.25-1.03-.37-2.17-.37-3.42 0-1.27.2-2.45.59-3.53a8.55 8.55 0 0 1 1.64-2.8c.7-.78 1.55-1.4 2.53-1.84.98-.45 2.06-.67 3.25-.67.4 0 .83.02 1.29.07.46.05.91.1 1.36.17v-7.57l3.82.67v15.54c0 1.34.08 2.45.23 3.33.16.88.34 1.6.54 2.14.2.55.38.94.55 1.19.17.25.26.4.29.47zm-4.76-3.35c.47-.38.88-.88 1.22-1.49.35-.61.61-1.31.8-2.09.19-.78.28-1.59.28-2.41v-4.82c-.22-.07-.56-.14-1-.23-.45-.09-.85-.13-1.21-.13-.85 0-1.55.15-2.09.44-.55.29-.99.69-1.32 1.21-.33.51-.57 1.13-.7 1.84-.13.71-.2 1.5-.2 2.34 0 .78.02 1.53.07 2.24.04.72.16 1.35.35 1.89.19.55.46.98.82 1.31.36.32.84.49 1.44.49a2.53 2.53 0 0 0 1.54-.59z" class="st0"/>
    <path id="path108" d="M537.6 158.88c.38.42.57.97.57 1.64 0 .67-.2 1.23-.59 1.67-.39.45-.97.67-1.72.67-.72 0-1.27-.22-1.66-.65-.39-.44-.59-.97-.59-1.59 0-.69.19-1.26.59-1.71.39-.45.98-.67 1.76-.67.71 0 1.26.22 1.64.64zm-2.68 22.56c-.63-.7-.94-1.61-.94-2.73v-13.03h3.82v12.69c0 .51.08.86.23 1.04.16.18.39.27.7.27h.29c.1 0 .19-.01.28-.03.09 0 .19-.01.3-.03l.4 2.41c-.16.09-.36.17-.6.23-.2.07-.45.12-.75.17-.3.05-.64.07-1.02.07-1.18-.01-2.08-.36-2.71-1.06z" class="st0"/>
    <path id="path110" d="M541.52 182.36v-2.28l7.4-11.72c-1.14.07-2.27.1-3.38.1h-3.28l-.47-2.78h11.59v2.28l-7.3 11.72c1-.07 2.01-.1 3.01-.1h4.59v2.78z" class="st0"/>
    <path id="path112" d="M569.82 174.29c0 1.34.08 2.46.25 3.37.17.91.35 1.64.55 2.19.25.67.51 1.19.8 1.57l-2.98 1.21c-.29-.29-.56-.64-.8-1.04-.2-.36-.39-.79-.57-1.29-.18-.5-.29-1.1-.34-1.79-.38 1.34-.99 2.35-1.83 3.03-.84.68-1.97 1.02-3.4 1.02-1.05 0-1.96-.2-2.73-.59-.77-.39-1.41-.95-1.93-1.67-.51-.73-.89-1.6-1.14-2.63-.25-1.03-.37-2.17-.37-3.42 0-1.27.2-2.45.59-3.53a8.55 8.55 0 0 1 1.64-2.8c.7-.78 1.55-1.4 2.53-1.84.98-.45 2.06-.67 3.25-.67.67 0 1.37.05 2.09.15.73.1 1.4.21 2.03.32.62.11 1.16.22 1.59.32.43.1.69.16.75.18v7.91zm-6.13 5.02c.47-.38.88-.88 1.22-1.49.35-.61.61-1.32.8-2.11.19-.79.28-1.6.28-2.43v-4.82c-.22-.07-.56-.14-1-.23-.45-.09-.85-.13-1.21-.13-.85 0-1.55.15-2.09.44-.55.29-.99.69-1.32 1.21-.33.51-.57 1.13-.7 1.84-.13.71-.2 1.5-.2 2.34 0 .78.02 1.53.07 2.24.04.72.16 1.35.35 1.91.19.56.46 1 .82 1.32.36.32.84.49 1.44.49.56-.01 1.07-.2 1.54-.58z" class="st0"/>
    <path id="path114" d="M574.31 165.68h3.82v15.88c0 1.34-.18 2.46-.54 3.35-.36.89-.81 1.65-1.36 2.26-.55.61-1.16 1.13-1.84 1.54-.68.41-1.36.79-2.03 1.12l-1.54-2.54c.83-.42 1.47-.88 1.94-1.36.47-.48.81-.96 1.04-1.44.22-.48.36-.94.42-1.39.06-.45.08-.84.08-1.17v-16.25zm3.6-6.8c.39.42.59.97.59 1.64 0 .67-.19 1.23-.59 1.67-.39.45-.98.67-1.76.67-.72 0-1.26-.22-1.64-.65-.38-.44-.57-.97-.57-1.59 0-.69.2-1.26.59-1.71.39-.45.97-.67 1.72-.67.72 0 1.27.22 1.66.64z" class="st0"/>
    <path id="path116" d="M582.1 170.47c.41-1.14.98-2.09 1.71-2.86s1.58-1.35 2.56-1.74c.98-.39 2.04-.59 3.18-.59 1 0 1.86.12 2.56.37s1.28.58 1.72 1c.45.42.78.93.99 1.51.21.58.32 1.2.32 1.87 0 .8-.22 1.57-.67 2.29-.45.73-1.09 1.36-1.93 1.91-.84.55-1.85.98-3.03 1.31-1.18.32-2.51.5-3.98.52.07.51.17 1 .32 1.46.14.46.36.86.64 1.21s.64.62 1.09.82c.45.2 1.01.3 1.67.3.49 0 1.02-.06 1.57-.17.56-.11 1.07-.25 1.54-.4.56-.18 1.11-.38 1.64-.6l1 2.38c-.58.29-1.21.55-1.88.77-.58.2-1.25.38-2.01.54-.76.16-1.56.23-2.41.23-1.3 0-2.4-.19-3.32-.59-.92-.39-1.66-.94-2.24-1.66-.58-.71-1-1.57-1.27-2.58s-.4-2.12-.4-3.35c.01-1.5.21-2.81.63-3.95zm5.32-2.06c-.48.35-.87.79-1.16 1.34-.29.55-.5 1.16-.62 1.84-.12.68-.2 1.37-.22 2.06 1.07-.04 1.98-.18 2.73-.42.75-.23 1.36-.52 1.82-.87.47-.35.81-.72 1.02-1.12.21-.4.32-.8.32-1.21 0-.65-.19-1.17-.57-1.56-.38-.39-.88-.59-1.51-.59-.72.01-1.33.18-1.81.53z" class="st0"/>
  </g>
</svg>
