<svg version="1.1" viewBox="0 0 128 128" xmlns="http://www.w3.org/2000/svg">
<path d="m92 117c0.8 3-0.5 5-3 6-10 4-19 5-30 5-31 0-59-22-59-58 0-38 28-70 71-70 33 0 57 22 57 53 0 27-16 44-36 44-9 0-15-4-16-14h-0.4c-6 9-14 14-24 14-12 0-21-9-21-24 0-22 17-43 44-43 5 0 10 0.7 15 2 4 1 7 5 6 10l-5 27c-2 11-0.6 16 5 16 8 0.2 18-10 18-31 0-24-16-42-45-42-29 0-54 22-54 57 0 31 20 48 48 48 7 0 15-1 22-3a6 6 0 0 1 5 0.3 6 6 0 0 1 3 4zm-16-70a2 2 0 0 0-1-2 23 22 0 0 0-4-0.4c-12 0-22 12-22 26 0 7 3 11 9 11 7 0 14-9 16-19z"/>
</svg>
