<svg viewBox="0 0 128 128" xmlns="http://www.w3.org/2000/svg"><defs><linearGradient id="a" x1="512" x2="512" y1="576" y2="448" gradientTransform="translate(-446 -446)" gradientUnits="userSpaceOnUse"><stop stop-color="#25cf43" offset="0"/><stop stop-color="#61fd7d" offset="1"/></linearGradient></defs><path d="M128 95c0 .7 0 2-.06 3a67 67 0 0 1-.7 8 28 28 0 0 1-2 7 25 25 0 0 1-11 11 28 28 0 0 1-7 2 68 68 0 0 1-8 .7c-1 0-3 .06-3 .06h-63c-.7 0-2 0-3-.06a67 67 0 0 1-8-.7 28 28 0 0 1-7-2 25 25 0 0 1-11-11 28 28 0 0 1-2-7 68 68 0 0 1-.7-8c0-1-.06-3-.06-3V32c0-.7 0-2 .06-3a67 67 0 0 1 .7-8 28 28 0 0 1 2-7 25 25 0 0 1 11-11 28 28 0 0 1 7-2 68 68 0 0 1 8-.7c1 0 3-.06 3-.06h63c.7 0 2 0 3 .06a67 67 0 0 1 8 .7 28 28 0 0 1 7 2 25 25 0 0 1 11 11 28 28 0 0 1 2 7 68 68 0 0 1 .7 8c0 1 .06 3 .06 3z" fill="url(#a)" fill-rule="evenodd"/><path d="M98 31a46 46 0 0 0-72 55l-6 24 24-6a46 46 0 0 0 22 6 46 46 0 0 0 32-78zm-32 70a38 38 0 0 1-19-5l-1-.8-14 4 4-14-.9-1a38 38 0 1 1 32 18zm21-29c-1-.6-7-3-8-4s-2-.6-3 .6-3 4-4 4-1 .9-2 .3a31 31 0 0 1-9-6 34 34 0 0 1-6-8c-.7-1-.07-2 .5-2s1-1 2-2a8 8 0 0 0 1-2 2 2 0 0 0-.1-2l-4-8c-1-2-2-2-3-2h-2a4 4 0 0 0-3 1 13 13 0 0 0-4 10c0 6 4 11 5 12s8 12 20 17a66 66 0 0 0 7 2 16 16 0 0 0 7 .4c2-.3 7-3 8-5s1-5 .7-5-1-.8-2-1z" fill="#fff" fill-rule="evenodd"/></svg>