<svg viewBox="0 0 128 128" xmlns="http://www.w3.org/2000/svg"><linearGradient id="a" x1="276" x2="276" y1="5" y2="550" gradientTransform="matrix(.2 0 0 -.2 0 129)" gradientUnits="userSpaceOnUse"><stop stop-color="#e09b3d" offset="0"/><stop stop-color="#c74c4d" offset=".3"/><stop stop-color="#c21975" offset=".6"/><stop stop-color="#7024c4" offset="1"/></linearGradient><path d="M90 0H38C17 0 0 17 0 38v52c0 21 17 38 38 38h52c21 0 38-17 38-38V38c0-21-17-38-38-38zm25 90c0 14-11 25-25 25H38c-14 0-25-11-25-25V38c0-14 11-25 25-25h52c14 0 25 11 25 25z" fill="url(#a)"/><path d="M64 31c-18 0-33 15-33 33s15 33 33 33 33-15 33-33-15-33-33-33zm0 53c-11 0-20-9-20-20s9-20 20-20 20 9 20 20-9 20-20 20z" fill="url(#a)"/><linearGradient id="b" x1="418" x2="418" y1="5" y2="550" gradientTransform="matrix(.2 0 0 -.2 0 129)" gradientUnits="userSpaceOnUse"><stop stop-color="#e09b3d" offset="0"/><stop stop-color="#c74c4d" offset=".3"/><stop stop-color="#c21975" offset=".6"/><stop stop-color="#7024c4" offset="1"/></linearGradient><circle cx="97" cy="31" r="8" fill="url(#b)"/></svg>