<svg xmlns="http://www.w3.org/2000/svg" xmlns:xlink="http://www.w3.org/1999/xlink" viewBox="0 0 128 128">
  <defs>
    <radialGradient xlink:href="#a" id="c" cx="158.429" cy="578.088" r="65" fx="158.429" fy="578.088" gradientTransform="matrix(0 -1.95165 1.8152 0 -1015.34 447.057)" gradientUnits="userSpaceOnUse"/>
    <radialGradient xlink:href="#b" id="d" cx="147.694" cy="473.455" r="65" fx="147.694" fy="473.455" gradientTransform="matrix(.17123 .85543 -3.52603 .7062 1622.687 -451.477)" gradientUnits="userSpaceOnUse"/>
    <linearGradient id="b">
      <stop offset="0" stop-color="#3771c8"/>
      <stop offset=".128" stop-color="#3771c8"/>
      <stop offset="1" stop-color="#60f" stop-opacity="0"/>
    </linearGradient>
    <linearGradient id="a">
      <stop offset="0" stop-color="#fd5"/>
      <stop offset=".1" stop-color="#fd5"/>
      <stop offset=".5" stop-color="#ff543e"/>
      <stop offset="1" stop-color="#c837ab"/>
    </linearGradient>
  </defs>
  <path fill="url(#c)" d="M64.02 0C37.302 0 29.488.028 27.969.154c-5.483.456-8.895 1.32-12.612 3.17-2.865 1.423-5.124 3.073-7.354 5.385-4.06 4.216-6.522 9.404-7.413 15.57-.434 2.993-.56 3.604-.586 18.894-.01 5.097 0 11.805 0 20.802 0 26.705.03 34.514.158 36.03.443 5.337 1.28 8.695 3.052 12.368 3.386 7.03 9.854 12.309 17.473 14.278 2.639.68 5.552 1.054 9.293 1.23 1.585.07 17.74.119 33.904.119 16.164 0 32.329-.02 33.874-.099 4.332-.203 6.847-.541 9.628-1.26a26.796 26.803 0 0 0 17.474-14.308c1.737-3.584 2.618-7.07 3.017-12.128.087-1.103.123-18.687.123-36.247 0-17.563-.04-35.114-.126-36.217-.404-5.14-1.285-8.597-3.078-12.25-1.472-2.99-3.106-5.224-5.479-7.507-4.234-4.045-9.412-6.507-15.582-7.397-2.99-.432-3.586-.56-18.884-.587Z"/>
  <path fill="url(#d)" d="M64.02 0C37.302 0 29.488.028 27.969.154c-5.483.456-8.895 1.32-12.612 3.17-2.865 1.423-5.124 3.073-7.354 5.385-4.06 4.216-6.522 9.404-7.413 15.57-.434 2.993-.56 3.604-.586 18.894-.01 5.097 0 11.805 0 20.802 0 26.705.03 34.514.158 36.03.443 5.337 1.28 8.695 3.052 12.368 3.386 7.03 9.854 12.309 17.473 14.278 2.639.68 5.552 1.054 9.293 1.23 1.585.07 17.74.119 33.904.119 16.164 0 32.329-.02 33.874-.099 4.332-.203 6.847-.541 9.628-1.26a26.796 26.803 0 0 0 17.474-14.308c1.737-3.584 2.618-7.07 3.017-12.128.087-1.103.123-18.687.123-36.247 0-17.563-.04-35.114-.126-36.217-.404-5.14-1.285-8.597-3.078-12.25-1.472-2.99-3.106-5.224-5.479-7.507-4.234-4.045-9.412-6.507-15.582-7.397-2.99-.432-3.586-.56-18.884-.587Z"/>
  <path fill="#fff" d="M63.991 16.74c-12.833 0-14.443.056-19.483.285-5.03.23-8.465 1.027-11.47 2.196-3.107 1.208-5.743 2.822-8.37 5.45-2.628 2.628-4.243 5.265-5.453 8.373-1.172 3.006-1.97 6.441-2.196 11.471-.225 5.042-.284 6.654-.284 19.49 0 12.837.057 14.443.285 19.485.232 5.031 1.028 8.466 2.196 11.471 1.207 3.11 2.822 5.746 5.45 8.373 2.625 2.63 5.261 4.248 8.367 5.456 3.006 1.168 6.441 1.965 11.47 2.195 5.04.23 6.65.286 19.482.286 12.834 0 14.44-.056 19.48-.286 5.03-.23 8.468-1.027 11.475-2.195 3.107-1.208 5.74-2.827 8.365-5.456 2.628-2.627 4.242-5.264 5.453-8.372 1.162-3.006 1.96-6.442 2.196-11.471.226-5.042.285-6.65.285-19.486s-.059-14.447-.285-19.489c-.237-5.032-1.034-8.466-2.196-11.471-1.21-3.11-2.825-5.746-5.453-8.373-2.629-2.63-5.257-4.244-8.368-5.45-3.012-1.17-6.448-1.966-11.479-2.197-5.04-.229-6.644-.285-19.481-.285Zm-4.239 8.518c1.259-.002 2.662 0 4.24 0 12.616 0 14.111.045 19.093.271 4.608.211 7.108.981 8.774 1.628 2.205.857 3.777 1.88 5.43 3.535 1.654 1.654 2.677 3.23 3.536 5.436.647 1.664 1.417 4.165 1.627 8.773.226 4.983.276 6.48.276 19.094s-.05 14.11-.276 19.093c-.21 4.608-.98 7.11-1.627 8.774-.857 2.205-1.882 3.776-3.536 5.43-1.654 1.653-3.224 2.678-5.43 3.534-1.664.65-4.166 1.418-8.774 1.629-4.98.226-6.477.276-19.094.276s-14.112-.05-19.094-.276c-4.607-.213-7.107-.983-8.774-1.63-2.205-.856-3.78-1.88-5.434-3.535-1.654-1.654-2.678-3.226-3.536-5.432-.647-1.665-1.418-4.166-1.627-8.774-.227-4.983-.272-6.48-.272-19.101 0-12.622.045-14.111.272-19.094.21-4.608.98-7.11 1.627-8.775.856-2.206 1.882-3.781 3.536-5.436 1.654-1.654 3.229-2.678 5.434-3.537 1.666-.65 4.167-1.418 8.774-1.63 4.36-.196 6.049-.255 14.855-.265zm29.462 7.848a5.67 5.672 0 1 0 5.67 5.67 5.673 5.673 0 0 0-5.67-5.672zm-25.223 6.627c-13.4 0-24.266 10.868-24.266 24.272 0 13.405 10.865 24.268 24.266 24.268 13.401 0 24.263-10.863 24.263-24.268 0-13.404-10.863-24.272-24.264-24.272zm0 8.517c8.699 0 15.751 7.054 15.751 15.755s-7.052 15.756-15.75 15.756c-8.7 0-15.752-7.055-15.752-15.756S55.292 48.25 63.991 48.25z"/>
</svg>
